<svg width="18" height="18" viewBox="0 0 18 18" fill="none" xmlns="http://www.w3.org/2000/svg">
<rect width="18" height="18" fill="#1E1E1E"/>
<rect width="18" height="18" fill="#BA0C2F"/>
<path fill-rule="evenodd" clip-rule="evenodd" d="M6.56066 4.43934C5.97487 3.85355 5.02513 3.85355 4.43934 4.43934C3.85355 5.02513 3.85355 5.97487 4.43934 6.56066L7.17188 9.2932L4.43935 12.0257C3.85357 12.6115 3.85357 13.5613 4.43935 14.147C5.02514 14.7328 5.97489 14.7328 6.56067 14.147L9.2932 11.4145L12.0257 14.147C12.6115 14.7328 13.5613 14.7328 14.147 14.147C14.7328 13.5613 14.7328 12.6115 14.147 12.0257L11.4145 9.2932L14.1471 6.56066C14.7328 5.97487 14.7328 5.02513 14.1471 4.43934C13.5613 3.85355 12.6115 3.85355 12.0257 4.43934L9.2932 7.17188L6.56066 4.43934Z" fill="white"/>
</svg>
